<?xml version="1.0" encoding="utf-8"?>
<svg xmlns="http://www.w3.org/2000/svg" width="24" height="24">
	<g class="wooly-icon">
		<path fill="#8E0" d="M 13 1.5 C 17 1 21 3.5 18 5.5 C 23 5 23 16 19 16 C 23 22 7 24 6 20 C -1 18 2 10 4 10 C 3 8 5 4 9 4 C 8 3 10 1.5 13 1.5 Z"/>
		<path fill="#000" d="M 8 9 C 10 9.5 10 10.5 10 11.5 C 10 12.5 10 13 8 13.5 C 6 13.5 5.5 12.5 5.5 11.5 C 5.5 10.5 6.5 8.5 8 9 Z M 14 10.5 C 16 10.5 17 12.5 16.75 13.5 C 16.5 15 14.5 15.5 14 15.5 C 13 15.5 12 14.5 12 13 C 12 12 13 10.5 14 10.5 Z M 14 8.5 C 16 8.25 17 9 18 10.5 C 18 8 16 8 15 8 Z M 6 15 C 10 17 12 16.5 15.5 16.25 C 15 18 14 19 12 19 C 8 19 7 17 6 15 Z"/>
	</g>
</svg>