<?xml version="1.0" encoding="utf-8"?>
<svg xmlns="http://www.w3.org/2000/svg" width="72" height="72">
	<title>WoolMoji - Money Mouth</title>
	<desc>SVG WoolMojis to use anywhere</desc>
	<style>@import url('woolmoji.css');</style>
	<g class="woolmoji" id="money_mouth_face">
		<g class="woolmoji-head">
			<path fill="var(--woolmoji-skin-wooly)" d="M 67 52 C 54 68 50 58 50 61 C 50 60 52 70 28 67 C 4 63 14 54 12 54 C 14 54 2 54 2 39 C 1 26 14 23 11 23 C 9 21 7 13 25 4 C 37 0 43 8 43 8 C 43 8 55 3 63 12 C 75 29 63 35 63 35 C 63 35 73 44 67 52 Z"/>
		</g>
		<g class="woolmoji-face">
			<path fill="transparent" stroke="var(--woolmoji-face-black)" stroke-width="3.5" d="M 12 4 C 0 4 0 10 8 10 C 14 10 14 18 1 16 M 6.5 1 L 8 20" transform="rotate(-10, 8, 10) translate(10, 21)"/>
			<path fill="transparent" stroke="var(--woolmoji-face-black)" stroke-width="3.5" d="M 12 4 C 0 4 0 10 8 10 C 14 10 14 18 1 16 M 6.5 1 L 8 20" transform="rotate(15, 8, 10) translate(45, 8)"/>
			<path fill="var(--woolmoji-face-black)" d="M 19 41 L 50 41 C 50 64 19 64 19 44 Z"/>
			<path fill="var(--woolmoji-face-green)" stroke="var(--woolmoji-face-black)" stroke-width="2" d="M 24 46 L 45 46 L 45 60 L 24 60 L 24 46 Z"/>
			<path fill="transparent" stroke="var(--woolmoji-face-black)" stroke-width="2.5" d="M 12 6 C 0 4 0 10 8 10 C 14 10 14 18 1 16 M 6.5 8 L 6.5 19.5" transform="translate(28, 39)"/>
		</g>
	</g>
</svg>