<?xml version="1.0" encoding="utf-8"?>
<svg xmlns="http://www.w3.org/2000/svg" width="72" height="72">
	<title>WoolMoji - Rolling On The Floor Laughing</title>
	<desc>SVG WoolMojis to use anywhere</desc>
	<style>@import url('woolmoji.css');</style>
	<g class="woolmoji" id="rolling_on_the_floor_laughing">
		<g class="woolmoji-head" transform="rotate(-30, 36, 36)">
			<path fill="var(--woolmoji-skin-wooly)" d="M 67 52 C 54 68 50 58 50 61 C 50 60 52 70 28 67 C 4 63 14 54 12 54 C 14 54 2 54 2 39 C 1 26 14 23 11 23 C 9 21 7 13 25 4 C 37 0 43 8 43 8 C 43 8 55 3 63 12 C 75 29 63 35 63 35 C 63 35 73 44 67 52 Z"/>
		</g>
		<g class="woolmoji-face" transform="rotate(-30, 36, 36)">
			<path fill="var(--woolmoji-face-black)" d="M 16 23 L 32 33 L 13 36 L 14 31 L 23 31.5 L 15 27 Z M 56 23 L 39 33 L 59 36 L 56 31.5 L 48 31.5 L 57 28 Z"/>
			<path fill="var(--woolmoji-sweat-tears)" d="M 16 34 C 4 30 2 30 1 36 C 2 40 2 40 16 34 Z M 57 34 C 64 30 70 30 71 36 C 70 40 66 40 57 34 Z"/>
			<path fill="var(--woolmoji-face-black)" d="M 19 41 L 50 41 C 50 64 19 64 19 44 Z"/>
		</g>
	</g>
</svg>