<?xml version="1.0" encoding="utf-8"?>
<svg xmlns="http://www.w3.org/2000/svg" width="72" height="72">
	<title>WoolMoji - Hand Over Mouth</title>
	<desc>SVG WoolMojis to use anywhere</desc>
	<style>@import url('woolmoji.css');</style>
	<g class="woolmoji" id="face_with_hand_over_mouth">
		<g class="woolmoji-head">
			<path fill="var(--woolmoji-skin-wooly)" d="M 67 52 C 54 68 50 58 50 61 C 50 60 52 70 28 67 C 4 63 14 54 12 54 C 14 54 2 54 2 39 C 1 26 14 23 11 23 C 9 21 7 13 25 4 C 37 0 43 8 43 8 C 43 8 55 3 63 12 C 75 29 63 35 63 35 C 63 35 73 44 67 52 Z"/>
			<ellipse fill="var(--woolmoji-blush)" cx="12" cy="40" rx="9" ry="6.5"/>
			<ellipse fill="var(--woolmoji-blush)" cx="56" cy="40" rx="9" ry="6.5"/>
		</g>
		<g class="woolmoji-face">
			<path fill="transparent" stroke="var(--woolmoji-face-black)" stroke-width="8" d="M 12 35 L 27 30 Z M 57 35 L 42 30 Z"/>
			<path fill="transparent" stroke="var(--woolmoji-face-black)" stroke-width="2" d="M 47 46 C 47 60 20 60 20 46 C 19 60 47 60 47 46 Z"/>
		</g>
		<g class="woolmoji-hands">
			<path fill="var(--woolmoji-hands-wooly)" d="M 15 1 C 24 1 25 4 25 15 C 24 20 23 22 23 24 C 23 27 7 27 7 24 C 0 20 -2 8 7 16 C 7 4 8 1 15 1 Z" transform="translate(20, 35) rotate(30, 12, 13)"/>
		</g>
	</g>
</svg>