<?xml version="1.0" encoding="utf-8"?>
<svg xmlns="http://www.w3.org/2000/svg" width="72" height="72">
	<title>WoolMoji - Sleepy</title>
	<desc>SVG WoolMojis to use anywhere</desc>
	<style>@import url('woolmoji.css');</style>
	<g class="woolmoji" id="sleepy_face">
		<g class="woolmoji-head">
			<path fill="var(--woolmoji-skin-wooly)" d="M 67 52 C 54 68 50 58 50 61 C 50 60 52 70 28 67 C 4 63 14 54 12 54 C 14 54 2 54 2 39 C 1 26 14 23 11 23 C 9 21 7 13 25 4 C 37 0 43 8 43 8 C 43 8 55 3 63 12 C 75 29 63 35 63 35 C 63 35 73 44 67 52 Z"/>
		</g>
		<g class="woolmoji-face">
			<path fill="transparent" stroke="var(--woolmoji-face-black)" stroke-width="4" d="M 12 30 C 12 40 27 40 27 30 M 57 30 C 57 40 42 40 42 30"/>
			<ellipse fill="var(--woolmoji-face-black)" cx="35" cy="50" rx="6" ry="8"/>
			<path fill="var(--woolmoji-sweat-tears)" d="M 33 37 C 55 30 55 60 33 37 Z"/>
		</g>
	</g>
</svg>