<?xml version="1.0" encoding="utf-8"?>
<svg xmlns="http://www.w3.org/2000/svg" width="72" height="72">
	<title>WoolMoji - Sneezing</title>
	<desc>SVG WoolMojis to use anywhere</desc>
	<style>@import url('woolmoji.css');</style>
	<g class="woolmoji" id="sneezing_face">
		<g class="woolmoji-head">
			<path fill="var(--woolmoji-skin-wooly)" d="M 67 52 C 54 68 50 58 50 61 C 50 60 52 70 28 67 C 4 63 14 54 12 54 C 14 54 2 54 2 39 C 1 26 14 23 11 23 C 9 21 7 13 25 4 C 37 0 43 8 43 8 C 43 8 55 3 63 12 C 75 29 63 35 63 35 C 63 35 73 44 67 52 Z"/>
		</g>
		<g class="woolmoji-face">
			<path fill="var(--woolmoji-face-black)" d="M 16 23 L 32 33 L 13 36 L 14 31 L 23 31.5 L 15 27 Z M 56 23 L 39 33 L 59 36 L 56 31.5 L 48 31.5 L 57 28 Z"/>
			<path fill="transparent" stroke="var(--woolmoji-face-black)" stroke-width="2" d="M 55 47 L 14 48"/>
			<path fill="var(--woolmoji-bandages-fill)" stroke="var(--woolmoji-bandages-stroke)" stroke-width="3" d="M 24 43 C 47 35 49 39 49 43 C 40 50 70 70 24 46 C 20 50 20 43 24 43 Z"/>
			<path fill="transparent" stroke="var(--woolmoji-bandages-stroke)" stroke-width="3" d="M 50 50 C 50 40 34 47 34 46"/>
		</g>
	</g>
</svg>