<?xml version="1.0" encoding="utf-8"?>
<svg xmlns="http://www.w3.org/2000/svg" width="72" height="72">
	<title>WoolMoji - Exploding</title>
	<desc>SVG WoolMojis to use anywhere</desc>
	<style>@import url('woolmoji.css');</style>
	<g class="woolmoji" id="exploding_head">
		<g class="woolmoji-head">
			<path fill="var(--woolmoji-smoke)" d="M 33 23 L 35 20 C 5 20 3 15 2 10 C 2 7 10 6 30 6 C 30 0 55 -1 58 7 C 69 8 72 20 40 20 L 40 23 Z"/>
			<path fill="var(--woolmoji-skin-wooly)" d="M 67 52 C 54 68 50 58 50 61 C 50 60 52 70 28 67 C 4 63 14 54 12 54 C 14 54 2 54 2 39 C 1 26 14 23 11 23 L 63 23 C 75 29 63 35 63 35 C 63 35 73 44 67 52 Z"/>
		</g>
		<g class="woolmoji-face">
			<ellipse fill="var(--woolmoji-face-white)" cx="25" cy="32" rx="10" ry="10"/>
			<ellipse fill="var(--woolmoji-face-white)" cx="46" cy="32" rx="10" ry="10"/>
			<ellipse fill="var(--woolmoji-face-black)" cx="25" cy="32" rx="5" ry="5"/>
			<ellipse fill="var(--woolmoji-face-black)" cx="46" cy="32" rx="5" ry="5"/>
			<ellipse fill="var(--woolmoji-face-black)" cx="35" cy="50" rx="6" ry="8"/>
		</g>
	</g>
</svg>