<?xml version="1.0" encoding="utf-8"?>
<svg xmlns="http://www.w3.org/2000/svg" width="72" height="72">
	<title>WoolMoji - Smiling with Smiling Eyes</title>
	<desc>SVG WoolMojis to use anywhere</desc>
	<style>@import url('woolmoji.css');</style>
	<g class="woolmoji" id="smiling_face_with_smiling_eyes">
		<g class="woolmoji-head">
			<path fill="var(--woolmoji-skin-wooly)" d="M 67 52 C 54 68 50 58 50 61 C 50 60 52 70 28 67 C 4 63 14 54 12 54 C 14 54 2 54 2 39 C 1 26 14 23 11 23 C 9 21 7 13 25 4 C 37 0 43 8 43 8 C 43 8 55 3 63 12 C 75 29 63 35 63 35 C 63 35 73 44 67 52 Z"/>
			<ellipse fill="var(--woolmoji-blush)" cx="12" cy="40" rx="9" ry="6.5"/>
			<ellipse fill="var(--woolmoji-blush)" cx="56" cy="40" rx="9" ry="6.5"/>
		</g>
		<g class="woolmoji-face">
			<path fill="var(--woolmoji-face-black)" d="M 23 23 L 31 36 L 26 35 L 23 30 L 18 35 L 13 36 Z M 46 23 L 56 36 L 51 35 L 46 30 L 43 35 L 38 36 Z"/>
			<path fill="transparent" stroke="var(--woolmoji-face-black)" stroke-width="2" d="M 50 43 C 50 60 19 60 19 43 C 19 60 50 60 50 43 Z"/>
		</g>
	</g>
</svg>