<?xml version="1.0" encoding="utf-8"?>
<svg xmlns="http://www.w3.org/2000/svg" width="72" height="72">
	<title>WoolMoji - Drooling</title>
	<desc>SVG WoolMojis to use anywhere</desc>
	<style>@import url('woolmoji.css');</style>
	<g class="woolmoji" id="drooling_face">
		<g class="woolmoji-head">
			<path fill="var(--woolmoji-skin-wooly)" d="M 67 52 C 54 68 50 58 50 61 C 50 60 52 70 28 67 C 4 63 14 54 12 54 C 14 54 2 54 2 39 C 1 26 14 23 11 23 C 9 21 7 13 25 4 C 37 0 43 8 43 8 C 43 8 55 3 63 12 C 75 29 63 35 63 35 C 63 35 73 44 67 52 Z"/>
		</g>
		<g class="woolmoji-face">
			<path fill="transparent" stroke="var(--woolmoji-face-black)" stroke-width="8" d="M 12 35 L 27 30 Z M 57 35 L 42 30 Z"/>
			<path fill="var(--woolmoji-face-black)" d="M 19 41 L 50 41 C 50 64 19 64 19 44 Z"/>
			<path fill="var(--woolmoji-sweat-tears)" d="M 40 54 C 46 50 56 47 54 54 C 54 65 44 80 40 54 Z"/>
		</g>
	</g>
</svg>